<svg xmlns="http://www.w3.org/2000/svg" xmlns:xlink="http://www.w3.org/1999/xlink" width="44.001" height="44" viewBox="0 0 44.001 44"><defs><style>.a{fill:url(#a);}.b{opacity:0.4;mix-blend-mode:soft-light;isolation:isolate;fill:url(#b);}.c{fill:#fff;}.d{filter:url(#c);}</style><linearGradient id="a" y1="0.041" x2="1" y2="1" gradientUnits="objectBoundingBox"><stop offset="0" stop-color="#ff6d6d"/><stop offset="1" stop-color="#f63b2f"/></linearGradient><linearGradient id="b" x1="0.287" x2="0.297" y2="1.017" gradientUnits="objectBoundingBox"><stop offset="0" stop-color="#fff" stop-opacity="0"/><stop offset="1" stop-color="#fff" stop-opacity="0.902"/></linearGradient><filter id="c" x="7" y="6.999" width="30" height="34" filterUnits="userSpaceOnUse"><feOffset dy="2" input="SourceAlpha"/><feGaussianBlur stdDeviation="1" result="d"/><feFlood flood-opacity="0.102"/><feComposite operator="in" in2="d"/><feComposite in="SourceGraphic"/></filter></defs><g transform="translate(10167 18273)"><g transform="translate(-10167 -18273)"><rect class="a" width="44" height="44" rx="8"/></g><path class="b" d="M22,50.993V30a8,8,0,0,1,8-8H54.992c.005.209.008.421.008.631C55,38.3,40.547,51,22.717,51,22.477,51,22.238,51,22,50.993Z" transform="translate(-10100.999 -18207) rotate(180)"/><g class="d" transform="matrix(1, 0, 0, 1, -10167, -18273)"><path class="c" d="M10.667,2.667A2.608,2.608,0,0,0,8,5.212V28.122a2.608,2.608,0,0,0,2.667,2.545H29.333A2.607,2.607,0,0,0,32,28.122V26.849a2.612,2.612,0,0,1-2.667,2.545h-18a1.911,1.911,0,1,1,0-3.818h18A2.607,2.607,0,0,0,32,23.031V5.212a2.608,2.608,0,0,0-2.667-2.545Z" transform="translate(2 5.33)"/></g></g></svg>